<svg version="1.2" baseProfile="tiny-ps" xmlns="http://www.w3.org/2000/svg" viewBox="0 0 1150 120" width="1150" height="120"><title>Final File 011107-ai</title><style>tspan { white-space:pre }.shp0 { fill: #ffffff } .shp1 { fill: #55b1bb } .shp2 { fill: #1a2123 } </style><g ><g ><g ><path class="shp0" d="M16.44 16.22L16.44 92.33L60.8 92.33L60.8 106.17L1.99 106.17L1.99 16.22L16.44 16.22Z" /><path fill-rule="evenodd" class="shp0" d="M93.29 38.4C97.41 31.36 102.99 25.74 110.03 21.54C117.07 17.33 124.75 15.23 133.07 15.23C141.31 15.23 148.95 17.33 155.99 21.54C163.03 25.74 168.65 31.38 172.85 38.46C177.06 45.55 179.16 53.16 179.16 61.32C179.16 69.64 177.07 77.3 172.92 84.3C168.76 91.3 163.13 96.86 156.05 100.98C148.97 105.1 141.31 107.15 133.07 107.15C124.75 107.15 117.07 105.12 110.03 101.04C102.99 96.96 97.41 91.42 93.29 84.42C89.17 77.42 87.11 69.72 87.11 61.32C87.11 53.08 89.17 45.44 93.29 38.4ZM106.14 77.38C108.94 82.24 112.75 86.11 117.57 88.99C122.38 91.88 127.68 93.32 133.44 93.32C139.13 93.32 144.31 91.9 149.01 89.05C153.7 86.21 157.43 82.34 160.19 77.44C162.95 72.54 164.33 67.17 164.33 61.32C164.33 55.47 162.93 50.07 160.13 45.13C157.33 40.19 153.54 36.28 148.76 33.4C143.99 30.51 138.76 29.07 133.07 29.07C127.31 29.07 122.06 30.51 117.32 33.4C112.58 36.28 108.83 40.19 106.08 45.13C103.32 50.07 101.94 55.47 101.94 61.32C101.94 67.17 103.34 72.52 106.14 77.38Z" /><path class="shp0" d="M271.75 104.25C265.62 106.19 260 107.15 254.89 107.15C245.42 107.15 237.1 105.26 229.93 101.47C222.77 97.68 217.25 92.47 213.38 85.84C209.5 79.21 207.57 71.7 207.57 63.29C207.57 53.16 209.65 44.48 213.81 37.23C217.97 29.98 223.57 24.5 230.61 20.79C237.65 17.09 245.38 15.23 253.78 15.23C258.97 15.23 263.89 15.83 268.54 17.03C273.19 18.22 277.29 19.81 280.83 21.78L276.14 35.13C273.67 33.64 270.4 32.37 266.32 31.3C262.24 30.23 258.68 29.69 255.63 29.69C245.33 29.69 237.22 32.53 231.29 38.21C225.36 43.9 222.4 51.85 222.4 62.06C222.4 68.16 223.78 73.53 226.54 78.18C229.29 82.84 233.16 86.44 238.15 88.99C243.13 91.55 248.84 92.82 255.26 92.82C258.14 92.82 260.9 92.56 263.54 92.02C266.17 91.49 268.4 90.72 270.21 89.73L270.21 74.78L253.28 74.78L253.28 60.95L284.67 60.95L284.67 97.89C282.19 100.19 277.89 102.32 271.75 104.25Z" /><path class="shp0" d="M379.98 104.25C373.84 106.19 368.22 107.15 363.12 107.15C353.64 107.15 345.33 105.26 338.16 101.47C331 97.68 325.48 92.47 321.6 85.84C317.73 79.21 315.8 71.7 315.8 63.29C315.8 53.16 317.88 44.48 322.04 37.23C326.2 29.98 331.8 24.5 338.84 20.79C345.88 17.09 353.6 15.23 362.01 15.23C367.19 15.23 372.12 15.83 376.77 17.03C381.42 18.22 385.52 19.81 389.06 21.78L384.37 35.13C381.9 33.64 378.62 32.37 374.55 31.3C370.47 30.23 366.9 29.69 363.86 29.69C353.56 29.69 345.45 32.53 339.52 38.21C333.59 43.9 330.62 51.85 330.62 62.06C330.62 68.16 332 73.53 334.76 78.18C337.52 82.84 341.39 86.44 346.38 88.99C351.36 91.55 357.06 92.82 363.49 92.82C366.37 92.82 369.13 92.56 371.77 92.02C374.4 91.49 376.62 90.72 378.44 89.73L378.44 74.78L361.51 74.78L361.51 60.95L392.89 60.95L392.89 97.89C390.42 100.19 386.12 102.32 379.98 104.25Z" /><g ><path class="shp1" d="M489.26 16.24L429.6 16.24L429.6 30.05L489.26 30.05L489.26 16.24Z" /><path class="shp0" d="M444.04 92.33L444.04 67.86L484.32 67.86L484.32 54.04L429.6 54.04L429.6 106.17L490.99 106.17L490.99 92.33L444.04 92.33Z" /></g><g ><path class="shp1" d="M1058.56 16.24L998.9 16.24L998.9 30.05L1058.56 30.05L1058.56 16.24Z" /><path class="shp0" d="M1013.33 92.33L1013.33 67.86L1053.62 67.86L1053.62 54.04L998.9 54.04L998.9 106.17L1060.29 106.17L1060.29 92.33L1013.33 92.33Z" /></g><path fill-rule="evenodd" class="shp0" d="M574.88 106.17L554.61 74.91L540.16 74.91L540.16 106.17L525.7 106.17L525.7 16.22L551.03 16.22C561.08 16.22 569.13 18.78 575.18 23.88C581.24 28.99 584.27 36.07 584.27 45.13C584.27 50.65 583.09 55.78 580.74 60.52C578.4 65.25 574.71 68.9 569.69 71.45L591.55 106.17L574.88 106.17ZM540.16 61.07L553.01 61.07C558.77 61.07 562.95 59.49 565.55 56.31C568.14 53.14 569.44 49.58 569.44 45.63C569.44 43.32 568.95 40.99 567.96 38.65C566.97 36.3 565.28 34.28 562.89 32.59C560.5 30.91 557.37 30.06 553.5 30.06L540.16 30.06L540.16 61.07Z" /><path class="shp0" d="M616.45 93.32C617.97 91.83 619.72 91.09 621.7 91.09C623.51 91.09 625.18 91.83 626.7 93.32C628.23 94.8 628.99 96.57 628.99 98.63C628.99 100.77 628.23 102.56 626.7 104C625.18 105.45 623.51 106.17 621.7 106.17C619.72 106.17 617.97 105.47 616.45 104.07C614.92 102.67 614.16 100.85 614.16 98.63C614.16 96.57 614.92 94.8 616.45 93.32Z" /><path class="shp0" d="M717.76 104.25C711.62 106.19 706 107.15 700.9 107.15C691.42 107.15 683.1 105.26 675.94 101.47C668.77 97.68 663.25 92.47 659.38 85.84C655.51 79.21 653.58 71.7 653.58 63.29C653.58 53.16 655.65 44.48 659.82 37.23C663.97 29.98 669.57 24.5 676.62 20.79C683.66 17.09 691.38 15.23 699.78 15.23C704.97 15.23 709.89 15.83 714.55 17.03C719.2 18.22 723.3 19.81 726.84 21.78L722.15 35.13C719.67 33.64 716.4 32.37 712.32 31.3C708.25 30.23 704.68 29.69 701.64 29.69C691.34 29.69 683.23 32.53 677.3 38.21C671.37 43.9 668.4 51.85 668.4 62.06C668.4 68.16 669.78 73.53 672.54 78.18C675.3 82.84 679.17 86.44 684.15 88.99C689.14 91.55 694.84 92.82 701.27 92.82C704.15 92.82 706.91 92.56 709.54 92.02C712.18 91.49 714.4 90.72 716.21 89.73L716.21 74.78L699.29 74.78L699.29 60.95L730.67 60.95L730.67 97.89C728.2 100.19 723.89 102.32 717.76 104.25Z" /><path fill-rule="evenodd" class="shp0" d="M813.57 85.04L780.83 85.04L772.18 106.17L757.97 106.17L797.76 12.52L798.62 12.52L838.4 106.17L821.85 106.17L813.57 85.04ZM808.75 72.68L797.51 44.27L785.9 72.68L808.75 72.68Z" /><path class="shp0" d="M959.36 13.01L959.36 106.17L945.02 106.17L945.02 54.15L913.52 98.88L913.27 98.88L882.51 56.25L882.51 106.17L868.55 106.17L868.55 13.01L868.67 13.01L913.52 76.51L959.11 13.01L959.36 13.01Z" /><path class="shp0" d="M1121.57 28.45C1117.12 28.45 1113.6 29.44 1111.01 31.42C1108.41 33.4 1107.12 36.11 1107.12 39.57C1107.12 42.95 1108.74 45.77 1112 48.04C1115.25 50.3 1119.8 52.55 1125.65 54.77C1130.1 56.34 1133.91 58.13 1137.08 60.14C1140.25 62.16 1142.86 64.9 1144.92 68.36C1146.98 71.82 1148.01 76.19 1148.01 81.46C1148.01 86.23 1146.82 90.56 1144.43 94.43C1142.04 98.3 1138.58 101.39 1134.05 103.7C1129.52 106 1124.17 107.15 1117.99 107.15C1112.55 107.15 1107.2 106.31 1101.93 104.62C1096.66 102.93 1091.96 100.61 1087.84 97.64L1094.27 86.4C1097.31 88.71 1100.92 90.62 1105.08 92.14C1109.24 93.67 1113.09 94.43 1116.63 94.43C1121 94.43 1124.83 93.38 1128.12 91.28C1131.41 89.18 1133.06 85.95 1133.06 81.58C1133.06 78.12 1131.68 75.24 1128.92 72.93C1126.16 70.63 1122.31 68.53 1117.37 66.63C1112.26 64.74 1108.02 62.86 1104.65 61.01C1101.27 59.16 1098.36 56.56 1095.94 53.23C1093.51 49.89 1092.29 45.71 1092.29 40.69C1092.29 33.36 1094.78 27.45 1099.77 22.96C1104.75 18.47 1111.32 16.06 1119.47 15.73C1125.4 15.73 1130.61 16.41 1135.1 17.77C1139.59 19.13 1143.77 21.04 1147.64 23.51L1142.2 34.51C1134.46 30.47 1127.58 28.45 1121.57 28.45Z" /></g><g ><path class="shp0" d="M16.44 16.22L16.44 92.33L60.8 92.33L60.8 106.17L1.99 106.17L1.99 16.22L16.44 16.22Z" /><path fill-rule="evenodd" class="shp0" d="M93.29 38.4C97.41 31.36 102.99 25.74 110.03 21.54C117.07 17.33 124.75 15.23 133.07 15.23C141.31 15.23 148.95 17.33 155.99 21.54C163.03 25.74 168.65 31.38 172.85 38.46C177.06 45.55 179.16 53.16 179.16 61.32C179.16 69.64 177.07 77.3 172.92 84.3C168.76 91.3 163.13 96.86 156.05 100.98C148.97 105.1 141.31 107.15 133.07 107.15C124.75 107.15 117.07 105.12 110.03 101.04C102.99 96.96 97.41 91.42 93.29 84.42C89.17 77.42 87.11 69.72 87.11 61.32C87.11 53.08 89.17 45.44 93.29 38.4ZM106.14 77.38C108.94 82.24 112.75 86.11 117.57 88.99C122.38 91.88 127.68 93.32 133.44 93.32C139.13 93.32 144.31 91.9 149.01 89.05C153.7 86.21 157.43 82.34 160.19 77.44C162.95 72.54 164.33 67.17 164.33 61.32C164.33 55.47 162.93 50.07 160.13 45.13C157.33 40.19 153.54 36.28 148.76 33.4C143.99 30.51 138.76 29.07 133.07 29.07C127.31 29.07 122.06 30.51 117.32 33.4C112.58 36.28 108.83 40.19 106.08 45.13C103.32 50.07 101.94 55.47 101.94 61.32C101.94 67.17 103.34 72.52 106.14 77.38Z" /><path class="shp0" d="M271.75 104.25C265.62 106.19 260 107.15 254.89 107.15C245.42 107.15 237.1 105.26 229.93 101.47C222.77 97.68 217.25 92.47 213.38 85.84C209.5 79.21 207.57 71.7 207.57 63.29C207.57 53.16 209.65 44.48 213.81 37.23C217.97 29.98 223.57 24.5 230.61 20.79C237.65 17.09 245.38 15.23 253.78 15.23C258.97 15.23 263.89 15.83 268.54 17.03C273.19 18.22 277.29 19.81 280.83 21.78L276.14 35.13C273.67 33.64 270.4 32.37 266.32 31.3C262.24 30.23 258.68 29.69 255.63 29.69C245.33 29.69 237.22 32.53 231.29 38.21C225.36 43.9 222.4 51.85 222.4 62.06C222.4 68.16 223.78 73.53 226.54 78.18C229.29 82.84 233.16 86.44 238.15 88.99C243.13 91.55 248.84 92.82 255.26 92.82C258.14 92.82 260.9 92.56 263.54 92.02C266.17 91.49 268.4 90.72 270.21 89.73L270.21 74.78L253.28 74.78L253.28 60.95L284.67 60.95L284.67 97.89C282.19 100.19 277.89 102.32 271.75 104.25Z" /><path class="shp0" d="M379.98 104.25C373.84 106.19 368.22 107.15 363.12 107.15C353.64 107.15 345.33 105.26 338.16 101.47C331 97.68 325.48 92.47 321.6 85.84C317.73 79.21 315.8 71.7 315.8 63.29C315.8 53.16 317.88 44.48 322.04 37.23C326.2 29.98 331.8 24.5 338.84 20.79C345.88 17.09 353.6 15.23 362.01 15.23C367.19 15.23 372.12 15.83 376.77 17.03C381.42 18.22 385.52 19.81 389.06 21.78L384.37 35.13C381.9 33.64 378.62 32.37 374.55 31.3C370.47 30.23 366.9 29.69 363.86 29.69C353.56 29.69 345.45 32.53 339.52 38.21C333.59 43.9 330.62 51.85 330.62 62.06C330.62 68.16 332 73.53 334.76 78.18C337.52 82.84 341.39 86.44 346.38 88.99C351.36 91.55 357.06 92.82 363.49 92.82C366.37 92.82 369.13 92.56 371.77 92.02C374.4 91.49 376.62 90.72 378.44 89.73L378.44 74.78L361.51 74.78L361.51 60.95L392.89 60.95L392.89 97.89C390.42 100.19 386.12 102.32 379.98 104.25Z" /><g ><path class="shp0" d="M444.04 92.33L444.04 67.86L484.32 67.86L484.32 54.04L429.6 54.04L429.6 106.17L490.99 106.17L490.99 92.33L444.04 92.33Z" /></g><g ><path class="shp0" d="M1013.33 92.33L1013.33 67.86L1053.62 67.86L1053.62 54.04L998.9 54.04L998.9 106.17L1060.29 106.17L1060.29 92.33L1013.33 92.33Z" /></g><path fill-rule="evenodd" class="shp0" d="M574.88 106.17L554.61 74.91L540.16 74.91L540.16 106.17L525.7 106.17L525.7 16.22L551.03 16.22C561.08 16.22 569.13 18.78 575.18 23.88C581.24 28.99 584.27 36.07 584.27 45.13C584.27 50.65 583.09 55.78 580.74 60.52C578.4 65.25 574.71 68.9 569.69 71.45L591.55 106.17L574.88 106.17ZM540.16 61.07L553.01 61.07C558.77 61.07 562.95 59.49 565.55 56.31C568.14 53.14 569.44 49.58 569.44 45.63C569.44 43.32 568.95 40.99 567.96 38.65C566.97 36.3 565.28 34.28 562.89 32.59C560.5 30.91 557.37 30.06 553.5 30.06L540.16 30.06L540.16 61.07Z" /><path class="shp0" d="M616.45 93.32C617.97 91.83 619.72 91.09 621.7 91.09C623.51 91.09 625.18 91.83 626.7 93.32C628.23 94.8 628.99 96.57 628.99 98.63C628.99 100.77 628.23 102.56 626.7 104C625.18 105.45 623.51 106.17 621.7 106.17C619.72 106.17 617.97 105.47 616.45 104.07C614.92 102.67 614.16 100.85 614.16 98.63C614.16 96.57 614.92 94.8 616.45 93.32Z" /><path class="shp0" d="M717.76 104.25C711.62 106.19 706 107.15 700.9 107.15C691.42 107.15 683.1 105.26 675.94 101.47C668.77 97.68 663.25 92.47 659.38 85.84C655.51 79.21 653.58 71.7 653.58 63.29C653.58 53.16 655.65 44.48 659.82 37.23C663.97 29.98 669.57 24.5 676.62 20.79C683.66 17.09 691.38 15.23 699.78 15.23C704.97 15.23 709.89 15.83 714.55 17.03C719.2 18.22 723.3 19.81 726.84 21.78L722.15 35.13C719.67 33.64 716.4 32.37 712.32 31.3C708.25 30.23 704.68 29.69 701.64 29.69C691.34 29.69 683.23 32.53 677.3 38.21C671.37 43.9 668.4 51.85 668.4 62.06C668.4 68.16 669.78 73.53 672.54 78.18C675.3 82.84 679.17 86.44 684.15 88.99C689.14 91.55 694.84 92.82 701.27 92.82C704.15 92.82 706.91 92.56 709.54 92.02C712.18 91.49 714.4 90.72 716.21 89.73L716.21 74.78L699.29 74.78L699.29 60.95L730.67 60.95L730.67 97.89C728.2 100.19 723.89 102.32 717.76 104.25Z" /><path fill-rule="evenodd" class="shp0" d="M813.57 85.04L780.83 85.04L772.18 106.17L757.97 106.17L797.76 12.52L798.62 12.52L838.4 106.17L821.85 106.17L813.57 85.04ZM808.75 72.68L797.51 44.27L785.9 72.68L808.75 72.68Z" /><path class="shp0" d="M959.36 13.01L959.36 106.17L945.02 106.17L945.02 54.15L913.52 98.88L913.27 98.88L882.51 56.25L882.51 106.17L868.55 106.17L868.55 13.01L868.67 13.01L913.52 76.51L959.11 13.01L959.36 13.01Z" /><path class="shp0" d="M1121.57 28.45C1117.12 28.45 1113.6 29.44 1111.01 31.42C1108.41 33.4 1107.12 36.11 1107.12 39.57C1107.12 42.95 1108.74 45.77 1112 48.04C1115.25 50.3 1119.8 52.55 1125.65 54.77C1130.1 56.34 1133.91 58.13 1137.08 60.14C1140.25 62.16 1142.86 64.9 1144.92 68.36C1146.98 71.82 1148.01 76.19 1148.01 81.46C1148.01 86.23 1146.82 90.56 1144.43 94.43C1142.04 98.3 1138.58 101.39 1134.05 103.7C1129.52 106 1124.17 107.15 1117.99 107.15C1112.55 107.15 1107.2 106.31 1101.93 104.62C1096.66 102.93 1091.96 100.61 1087.84 97.64L1094.27 86.4C1097.31 88.71 1100.92 90.62 1105.08 92.14C1109.24 93.67 1113.09 94.43 1116.63 94.43C1121 94.43 1124.83 93.38 1128.12 91.28C1131.41 89.18 1133.06 85.95 1133.06 81.58C1133.06 78.12 1131.68 75.24 1128.92 72.93C1126.16 70.63 1122.31 68.53 1117.37 66.63C1112.26 64.74 1108.02 62.86 1104.65 61.01C1101.27 59.16 1098.36 56.56 1095.94 53.23C1093.51 49.89 1092.29 45.71 1092.29 40.69C1092.29 33.36 1094.78 27.45 1099.77 22.96C1104.75 18.47 1111.32 16.06 1119.47 15.73C1125.4 15.73 1130.61 16.41 1135.1 17.77C1139.59 19.13 1143.77 21.04 1147.64 23.51L1142.2 34.51C1134.46 30.47 1127.58 28.45 1121.57 28.45Z" /></g><path class="shp2" d="M-34 -30L1150 -30L1150 152L-34 152L-34 -30Z" /></g></g></svg>